# xmcd
#
# Track frame offsets: 
#        150
#        20402
#        40094
#        55636
#        78295
#        94122
#        114083
#        136926
#        160223
#        181746
#        202668
#        217938
#        236564
#        252424
#        282966
#
# Disc length: 3819 seconds
#
# Revision: 0
# Processed by: cddbd v1.5.2PL0 Copyright (c) Steve Scherf et al.
# Submitted via: ExactAudioCopy v1.0b1
#
DISCID=b50ee90f
DTITLE=Playlist: The Very Best Of Sir Mix-A-Lot - Sir Mix-A-Lot
DYEAR=2009
DGENRE=Rap
TTITLE0=Buckin' My Horse
TTITLE1=Baby Got Back
TTITLE2=Why Do Rappers Lie?
TTITLE3=Posse On Broadway [Thunder Mix]
TTITLE4=Put 'Em On The Glass
TTITLE5=Posin Like A Playa
TTITLE6=Posse On Broadway
TTITLE7=Testarossa
TTITLE8=My Hooptie
TTITLE9=Baby Got Back [Roxk Mix]
TTITLE10=Pimp Wit It
TTITLE11=I Checks My Bank
TTITLE12=Buttermilk Biscuits (Keep On Square Dancin')
TTITLE13=Beepers
TTITLE14=[Data Track]
EXTD=
EXTT0=
EXTT1=
EXTT2=
EXTT3=
EXTT4=
EXTT5=
EXTT6=
EXTT7=
EXTT8=
EXTT9=
EXTT10=
EXTT11=
EXTT12=
EXTT13=
EXTT14=
PLAYORDER=
